<svg width="102" height="102" viewBox="0 0 102 102" fill="none" xmlns="http://www.w3.org/2000/svg">
<g id="Group">
<g id="Group_2">
<g id="Group_3">
<path id="Vector" d="M84.6839 86.3627H86.7892C90.0366 86.3627 92.6786 83.7207 92.6786 80.4733V74.1576C92.6786 70.9102 90.0366 68.2682 86.7892 68.2682H84.6839C81.4365 68.2682 78.7945 70.9102 78.7945 74.1576V80.4733C78.7945 83.7207 81.4365 86.3627 84.6839 86.3627ZM82.1523 74.1576C82.1523 72.7616 83.288 71.6259 84.6839 71.6259H86.7892C88.1851 71.6259 89.3208 72.7616 89.3208 74.1576V80.4733C89.3208 81.8693 88.1851 83.005 86.7892 83.005H84.6839C83.288 83.005 82.1523 81.8693 82.1523 80.4733V74.1576Z" fill="url(#paint0_linear_1894_252)" stroke="url(#paint1_linear_1894_252)" stroke-width="0.2"/>
<path id="Vector_2" d="M32.5785 86.3626H34.6837C37.9311 86.3626 40.5731 83.7206 40.5731 80.4732V36.263C40.5731 33.0156 37.9311 30.3736 34.6837 30.3736H32.5785C29.3311 30.3736 26.6891 33.0156 26.6891 36.263V80.4732C26.6891 83.7206 29.3311 86.3626 32.5785 86.3626ZM30.0468 36.263C30.0468 34.8671 31.1825 33.7314 32.5785 33.7314H34.6837C36.0796 33.7314 37.2153 34.8671 37.2153 36.263V80.4732C37.2153 81.8691 36.0796 83.0048 34.6837 83.0048H32.5785C31.1825 83.0048 30.0468 81.8691 30.0468 80.4732V36.263Z" fill="url(#paint2_linear_1894_252)" stroke="url(#paint3_linear_1894_252)" stroke-width="0.2"/>
<path id="Vector_3" d="M94.0226 89.8134L94.0226 89.8135C93.3669 90.4691 93.3669 91.532 94.0226 92.1879L94.0933 92.1172L94.0226 92.1879L95.3671 93.5322H6.63217L7.97665 92.1879L7.97666 92.1879C8.63231 91.5322 8.6323 90.4693 7.97667 89.8135L7.97665 89.8135C7.32099 89.158 6.2581 89.158 5.60227 89.8134L5.60225 89.8135L1.39174 94.024C0.736082 94.6796 0.736098 95.7425 1.39173 96.3984L1.39174 96.3984L5.60225 100.609L5.60226 100.609C6.25791 101.264 7.3208 101.264 7.97663 100.609L7.97666 100.609C8.63231 99.9532 8.6323 98.8903 7.97667 98.2345L7.97665 98.2345L6.63217 96.8902H95.3667L94.0222 98.2345C93.3665 98.8901 93.3665 99.953 94.0222 100.609L94.0929 100.538L94.0222 100.609C94.3501 100.937 94.7802 101.1 95.2095 101.1C95.6388 101.1 96.0689 100.937 96.3968 100.609L96.3261 100.538L96.3968 100.609L100.607 96.3984C101.263 95.7425 101.263 94.6796 100.607 94.024L96.397 89.8135C95.7413 89.158 94.6784 89.158 94.0226 89.8134Z" fill="url(#paint4_linear_1894_252)" stroke="url(#paint5_linear_1894_252)" stroke-width="0.2"/>
<path id="Vector_4" d="M67.3167 86.3637H69.422C72.6694 86.3637 75.3114 83.7217 75.3114 80.4743V55.2113C75.3114 51.9639 72.6694 49.3219 69.422 49.3219H67.3167C64.0694 49.3219 61.4273 51.9639 61.4273 55.2113V80.4741C61.4271 83.7217 64.0692 86.3637 67.3167 86.3637ZM64.7851 55.2113C64.7851 53.8154 65.9208 52.6797 67.3167 52.6797H69.422C70.8179 52.6797 71.9536 53.8154 71.9536 55.2113V80.4741C71.9536 81.8701 70.8179 83.0058 69.422 83.0058H67.3167C65.9208 83.0058 64.7851 81.8701 64.7851 80.4741V55.2113Z" fill="url(#paint6_linear_1894_252)" stroke="url(#paint7_linear_1894_252)" stroke-width="0.2"/>
<path id="Vector_5" d="M49.9476 86.3626H52.0529C55.3003 86.3626 57.9423 83.7205 57.9423 80.4732V6.7894C57.9423 3.54202 55.3003 0.9 52.0529 0.9H49.9476C46.7002 0.9 44.0582 3.54202 44.0582 6.7894V80.473C44.0582 83.7205 46.7002 86.3626 49.9476 86.3626ZM47.4162 6.7894C47.4162 5.39347 48.5519 4.25779 49.9478 4.25779H52.0531C53.449 4.25779 54.5847 5.39347 54.5847 6.7894V80.473C54.5847 81.8689 53.449 83.0046 52.0531 83.0046H49.9476C48.5517 83.0046 47.416 81.8689 47.416 80.473L47.4162 6.7894Z" fill="url(#paint8_linear_1894_252)" stroke="url(#paint9_linear_1894_252)" stroke-width="0.2"/>
<path id="Vector_6" d="M15.2113 86.3626H17.3165C20.5639 86.3626 23.2059 83.7206 23.2059 80.4732V63.6312C23.2059 60.3838 20.5639 57.7418 17.3165 57.7418H15.2113C11.9639 57.7418 9.32188 60.3838 9.32188 63.6312V80.4732C9.32168 83.7206 11.9639 86.3626 15.2113 86.3626ZM12.6797 63.6312C12.6797 62.2353 13.8153 61.0996 15.2113 61.0996H17.3165C18.7125 61.0996 19.8482 62.2353 19.8482 63.6312V80.4732C19.8482 81.8692 18.7125 83.0049 17.3165 83.0049H15.2113C13.8153 83.0049 12.6797 81.8692 12.6797 80.4732V63.6312Z" fill="url(#paint10_linear_1894_252)" stroke="url(#paint11_linear_1894_252)" stroke-width="0.2"/>
</g>
</g>
</g>
<defs>
<linearGradient id="paint0_linear_1894_252" x1="78.8945" y1="77.3155" x2="92.5786" y2="77.3155" gradientUnits="userSpaceOnUse">
<stop stop-color="#F62431"/>
<stop offset="1" stop-color="#AA000B"/>
</linearGradient>
<linearGradient id="paint1_linear_1894_252" x1="78.8945" y1="77.3155" x2="92.5786" y2="77.3155" gradientUnits="userSpaceOnUse">
<stop stop-color="#F62431"/>
<stop offset="1" stop-color="#AA000B"/>
</linearGradient>
<linearGradient id="paint2_linear_1894_252" x1="26.7891" y1="58.3681" x2="40.4731" y2="58.3681" gradientUnits="userSpaceOnUse">
<stop stop-color="#F62431"/>
<stop offset="1" stop-color="#AA000B"/>
</linearGradient>
<linearGradient id="paint3_linear_1894_252" x1="26.7891" y1="58.3681" x2="40.4731" y2="58.3681" gradientUnits="userSpaceOnUse">
<stop stop-color="#F62431"/>
<stop offset="1" stop-color="#AA000B"/>
</linearGradient>
<linearGradient id="paint4_linear_1894_252" x1="1" y1="95.2112" x2="100.999" y2="95.2112" gradientUnits="userSpaceOnUse">
<stop stop-color="#F62431"/>
<stop offset="1" stop-color="#AA000B"/>
</linearGradient>
<linearGradient id="paint5_linear_1894_252" x1="1" y1="95.2112" x2="100.999" y2="95.2112" gradientUnits="userSpaceOnUse">
<stop stop-color="#F62431"/>
<stop offset="1" stop-color="#AA000B"/>
</linearGradient>
<linearGradient id="paint6_linear_1894_252" x1="61.5273" y1="67.8428" x2="75.2114" y2="67.8428" gradientUnits="userSpaceOnUse">
<stop stop-color="#F62431"/>
<stop offset="1" stop-color="#AA000B"/>
</linearGradient>
<linearGradient id="paint7_linear_1894_252" x1="61.5273" y1="67.8428" x2="75.2114" y2="67.8428" gradientUnits="userSpaceOnUse">
<stop stop-color="#F62431"/>
<stop offset="1" stop-color="#AA000B"/>
</linearGradient>
<linearGradient id="paint8_linear_1894_252" x1="44.1582" y1="43.6313" x2="57.8423" y2="43.6313" gradientUnits="userSpaceOnUse">
<stop stop-color="#F62431"/>
<stop offset="1" stop-color="#AA000B"/>
</linearGradient>
<linearGradient id="paint9_linear_1894_252" x1="44.1582" y1="43.6313" x2="57.8423" y2="43.6313" gradientUnits="userSpaceOnUse">
<stop stop-color="#F62431"/>
<stop offset="1" stop-color="#AA000B"/>
</linearGradient>
<linearGradient id="paint10_linear_1894_252" x1="9.42188" y1="72.0522" x2="23.1059" y2="72.0522" gradientUnits="userSpaceOnUse">
<stop stop-color="#F62431"/>
<stop offset="1" stop-color="#AA000B"/>
</linearGradient>
<linearGradient id="paint11_linear_1894_252" x1="9.42188" y1="72.0522" x2="23.1059" y2="72.0522" gradientUnits="userSpaceOnUse">
<stop stop-color="#F62431"/>
<stop offset="1" stop-color="#AA000B"/>
</linearGradient>
</defs>
</svg>
