<svg width="331" height="273" viewBox="0 0 331 273" fill="none" xmlns="http://www.w3.org/2000/svg">
<path opacity="0.6" fill-rule="evenodd" clip-rule="evenodd" d="M256.534 1.67816C192.92 -5.53933 126.003 23.738 88.388 75.244C78.2393 89.1416 67.3431 113.526 37.9705 188.078L0.49965 283.185L27.192 293.702L53.881 304.217L91.7591 211.368L121.355 138.813C126.81 125.441 135.095 113.409 145.643 103.545L148.664 100.72C181.31 70.1975 222.125 58.0552 266.288 65.7339L287.245 69.377L297.747 42.7209L308.249 16.0647L292.149 9.97783C283.296 6.62968 267.267 2.89316 256.534 1.67816ZM309.84 99.2198C276.265 180.789 272.404 185.944 243.234 188.122C228.71 189.204 219.529 186.946 188.103 174.565L150.401 159.71L139.965 186.198L129.528 212.69L170.637 230.482C216.08 250.154 223.341 256.544 227.558 280.615C229.47 291.536 227.438 300.184 216.328 328.411L202.766 362.875L231.42 374.165L260.074 385.454L273.771 350.689C289.565 310.602 292.584 287.934 285.728 260.945L280.993 242.309L295.976 233.61C323.364 217.708 331.258 204.778 363.434 123.112L392.527 49.269L365.797 38.7379L339.068 28.2069L309.84 99.2198Z" fill="#FCD0D0"/>
</svg>
