<svg width="80" height="102" viewBox="0 0 80 102" fill="none" xmlns="http://www.w3.org/2000/svg">
<g id="Group">
<g id="Group_2">
<g id="Group_3">
<path id="Vector" d="M12.9221 26.0935H35.9163C36.9063 26.0935 37.709 25.2908 37.709 24.3007C37.709 23.3106 36.9064 22.5077 35.9163 22.5077H12.9221C11.932 22.5077 11.1293 23.3104 11.1293 24.3007C11.1293 25.2908 11.932 26.0935 12.9221 26.0935Z" fill="url(#paint0_linear_1894_233)" stroke="url(#paint1_linear_1894_233)" stroke-width="0.3"/>
<path id="Vector_2" d="M48.8733 31.6742H12.9221C11.932 31.6742 11.1293 32.4769 11.1293 33.4672C11.1293 34.4575 11.932 35.26 12.9221 35.26H48.8733C49.8634 35.26 50.6661 34.4573 50.6661 33.4672C50.6661 32.4771 49.8634 31.6742 48.8733 31.6742Z" fill="url(#paint2_linear_1894_233)" stroke="url(#paint3_linear_1894_233)" stroke-width="0.3"/>
<path id="Vector_3" d="M12.9221 44.426H35.9163C36.9063 44.426 37.709 43.6233 37.709 42.633C37.709 41.6429 36.9063 40.8402 35.9163 40.8402H12.9221C11.932 40.8402 11.1293 41.6429 11.1293 42.633C11.1293 43.6233 11.932 44.426 12.9221 44.426Z" fill="url(#paint4_linear_1894_233)" stroke="url(#paint5_linear_1894_233)" stroke-width="0.3"/>
<path id="Vector_4" d="M46.0442 72.3676H11.0822C10.0921 72.3676 9.28945 73.1703 9.28945 74.1606V84.442C9.28945 85.4321 10.0922 86.2348 11.0822 86.2348H46.0442C47.0343 86.2348 47.8372 85.4321 47.8372 84.442V74.1606C47.8372 73.1703 47.0347 72.3676 46.0442 72.3676ZM44.2514 82.6492H12.8752V75.9533H44.2514V82.6492Z" fill="url(#paint6_linear_1894_233)" stroke="url(#paint7_linear_1894_233)" stroke-width="0.3"/>
<path id="Vector_5" d="M12.9221 53.59H25.7723C26.7624 53.59 27.5653 52.7874 27.5653 51.7971C27.5653 50.807 26.7625 50.0043 25.7723 50.0043H12.9221C11.932 50.0043 11.1293 50.807 11.1293 51.7971C11.1293 52.7873 11.932 53.59 12.9221 53.59Z" fill="url(#paint8_linear_1894_233)" stroke="url(#paint9_linear_1894_233)" stroke-width="0.3"/>
<path id="Vector_6" d="M12.9221 62.7561H35.9163C36.9063 62.7561 37.709 61.9533 37.709 60.9631C37.709 59.973 36.9063 59.1703 35.9163 59.1703H12.9221C11.932 59.1703 11.1293 59.973 11.1293 60.9631C11.1293 61.9533 11.932 62.7561 12.9221 62.7561Z" fill="url(#paint10_linear_1894_233)" stroke="url(#paint11_linear_1894_233)" stroke-width="0.3"/>
<path id="Vector_7" d="M48.8733 13.3441H12.9221C11.932 13.3441 11.1293 14.1469 11.1293 15.1371C11.1293 16.1272 11.932 16.9299 12.9221 16.9299H48.8733C49.8634 16.9299 50.6661 16.1272 50.6661 15.1371C50.6661 14.1469 49.8634 13.3441 48.8733 13.3441Z" fill="url(#paint12_linear_1894_233)" stroke="url(#paint13_linear_1894_233)" stroke-width="0.3"/>
<path id="Vector_8" d="M66.95 62.7561H59.8771C58.8869 62.7561 58.0842 61.9534 58.0844 60.9631L66.95 62.7561ZM66.95 62.7561C67.9401 62.7561 68.7428 61.9533 68.7428 60.9631M66.95 62.7561L68.7428 60.9631M68.7428 60.9631C68.7428 59.973 67.9401 59.1703 66.95 59.1703M68.7428 60.9631L66.95 59.1703M66.95 59.1703H59.8771M66.95 59.1703H59.8771M59.8771 59.1703C58.8871 59.1703 58.0844 59.973 58.0844 60.9631L59.8771 59.1703Z" fill="url(#paint14_linear_1894_233)" stroke="url(#paint15_linear_1894_233)" stroke-width="0.3"/>
<path id="Vector_9" d="M67.4469 72.8731L67.4469 72.8731L67.4448 72.872C66.6378 72.4215 65.7422 72.1163 64.7428 71.9547V71.8148C64.7428 71.1765 64.2346 70.6684 63.5961 70.6684C62.9576 70.6684 62.4496 71.1766 62.4496 71.8148V71.9111C61.2765 72.0546 60.2863 72.4744 59.5798 73.1255C58.8442 73.8034 58.4246 74.7251 58.4246 75.8205C58.4246 76.9953 58.7771 77.8713 59.4974 78.5463C60.1908 79.1961 61.2127 79.6474 62.5451 80.0174V82.7614C61.7612 82.5659 61.0622 82.2261 60.3241 81.7518C60.0758 81.5866 59.7796 81.4781 59.4943 81.4781C58.667 81.4781 58.0219 82.0981 58.0219 82.9313C58.0219 83.506 58.3025 83.9351 58.7447 84.2088L58.7455 84.2093C59.8564 84.8871 61.1145 85.3653 62.4494 85.5539V86.4577C62.4494 87.0959 62.9573 87.6043 63.5959 87.6043C64.2344 87.6043 64.7426 87.0959 64.7426 86.4577V85.5747C65.9154 85.423 66.9146 85.0083 67.6303 84.3598C68.3758 83.6844 68.8055 82.7624 68.8055 81.6471C68.8056 80.5406 68.4829 79.6655 67.7738 78.9688C67.089 78.2959 66.0561 77.8018 64.6469 77.4111V74.8104C65.0916 74.9446 65.5522 75.1474 66.0163 75.3962C66.249 75.5233 66.5038 75.5869 66.7586 75.5869C67.5666 75.5869 68.2117 74.967 68.2117 74.1529C68.2117 73.5099 67.8431 73.1026 67.4469 72.8731ZM64.6469 82.8667V80.5978C65.0396 80.7538 65.2942 80.9162 65.4548 81.0914C65.6353 81.2882 65.7076 81.5129 65.7076 81.7996V81.7997C65.7077 82.1079 65.6067 82.3437 65.4138 82.5204C65.2435 82.6764 64.9913 82.7955 64.6469 82.8667ZM62.5453 74.6185V76.8091C62.1472 76.6467 61.9011 76.4851 61.7507 76.3166C61.5828 76.1285 61.5229 75.9187 61.5229 75.6475C61.5229 75.3762 61.6106 75.1485 61.7933 74.9718C61.9539 74.8166 62.1977 74.6912 62.5453 74.6185Z" fill="url(#paint16_linear_1894_233)" stroke="url(#paint17_linear_1894_233)" stroke-width="0.3"/>
<path id="Vector_10" d="M66.95 16.9299H59.8771C58.8869 16.9299 58.0842 16.1272 58.0844 15.1371L66.95 16.9299ZM66.95 16.9299C67.9401 16.9299 68.7428 16.1272 68.7428 15.1371M66.95 16.9299L68.7428 15.1371M68.7428 15.1371C68.7428 14.1471 67.9401 13.3441 66.95 13.3441M68.7428 15.1371L66.95 13.3441M66.95 13.3441H59.8771M66.95 13.3441H59.8771M59.8771 13.3441C58.8871 13.3441 58.0844 14.1468 58.0844 15.1371L59.8771 13.3441Z" fill="url(#paint18_linear_1894_233)" stroke="url(#paint19_linear_1894_233)" stroke-width="0.3"/>
<path id="Vector_11" d="M66.95 53.59H59.8771C58.8869 53.59 58.0842 52.7874 58.0844 51.7971L66.95 53.59ZM66.95 53.59C67.9401 53.59 68.7428 52.7873 68.7428 51.7971M66.95 53.59L68.7428 51.7971M68.7428 51.7971C68.7428 50.807 67.9401 50.0043 66.95 50.0043M68.7428 51.7971L66.95 50.0043M66.95 50.0043H59.8771M66.95 50.0043H59.8771M59.8771 50.0043C58.8871 50.0043 58.0844 50.807 58.0844 51.797L59.8771 50.0043Z" fill="url(#paint20_linear_1894_233)" stroke="url(#paint21_linear_1894_233)" stroke-width="0.3"/>
<path id="Vector_12" d="M28.4519 98.5732L28.3836 98.4397L28.4519 98.5732C28.9675 98.3098 29.7362 98.1529 30.5624 98.1529C31.3886 98.1529 32.1577 98.3098 32.6734 98.5732L36.1274 100.337C37.1579 100.864 38.4867 101.15 39.869 101.15C41.2512 101.15 42.5801 100.863 43.6107 100.337L47.065 98.573L46.9968 98.4395L47.065 98.573C47.5806 98.3096 48.3493 98.1527 49.1755 98.1527C50.0017 98.1527 50.7708 98.3096 51.2865 98.573L54.7405 100.337C55.7708 100.863 57.0998 101.15 58.4821 101.15C59.8647 101.15 61.1933 100.863 62.2238 100.337L65.6777 98.573C66.1937 98.3096 66.9624 98.1527 67.7886 98.1527C68.6148 98.1527 69.3837 98.3096 69.8995 98.5729L73.3534 100.337C74.0237 100.679 74.703 100.855 75.3718 100.855C76.4071 100.855 77.3378 100.429 77.9873 99.655L77.8724 99.5586L77.9874 99.655C78.58 98.9483 78.8879 98.0099 78.8879 96.9488V5.92794C78.8877 3.12809 76.6095 0.85 73.8091 0.85H5.92872C3.1281 0.85 0.85 3.1281 0.85 5.92872V96.9494C0.85 98.0864 1.20605 99.0629 1.82811 99.757C2.45126 100.452 3.33386 100.856 4.36602 100.856C5.03488 100.856 5.71435 100.68 6.3846 100.338L6.31642 100.204L6.38464 100.338L9.83855 98.5736C10.3545 98.3102 11.1233 98.1533 11.9494 98.1533C12.7756 98.1533 13.5446 98.3102 14.0603 98.5734L17.5142 100.337C18.5446 100.864 19.8736 101.15 21.2559 101.15C22.638 101.15 23.967 100.864 24.9976 100.337L28.4519 98.5732ZM75.3021 96.7994H75.3019V96.9494C75.3019 97.0876 75.2868 97.1881 75.2705 97.2554C75.2053 97.24 75.1101 97.2084 74.9841 97.144L74.984 97.144L71.5303 95.3799C70.4997 94.8536 69.1709 94.5674 67.7886 94.5674C66.4065 94.5674 65.0775 94.8538 64.0469 95.3801L60.593 97.1439C60.0771 97.4074 59.3083 97.5643 58.4821 97.5643C57.656 97.5643 56.887 97.4074 56.3712 97.1441L52.9176 95.3801L52.8493 95.5137L52.9175 95.3801C51.887 94.8538 50.558 94.5674 49.1757 94.5674C47.7932 94.5674 46.4646 94.8538 45.4342 95.3801L41.9803 97.1439C41.4643 97.4074 40.6956 97.5643 39.8694 97.5643C39.0432 97.5643 38.2743 97.4074 37.7585 97.1441L34.3046 95.3801L34.2364 95.5137L34.3046 95.3801C33.2741 94.8538 31.9451 94.5674 30.5628 94.5674C29.1804 94.5674 27.8516 94.8538 26.8213 95.3801L23.3674 97.1439C22.8514 97.4074 22.0827 97.5643 21.2565 97.5643C20.4303 97.5643 19.6614 97.4074 19.1456 97.1441L15.6917 95.3801L15.6235 95.5137L15.6917 95.3801C14.6611 94.8538 13.3323 94.5676 11.95 94.5676C10.5679 94.5676 9.2389 94.854 8.20836 95.3803L4.75444 97.1441C4.62766 97.2089 4.532 97.2404 4.46683 97.2558C4.4505 97.1885 4.43536 97.0879 4.43536 96.9496L4.43595 5.92853C4.43595 5.10532 5.10589 4.43555 5.92892 4.43555H73.8093C74.6323 4.43555 75.3021 5.1053 75.3021 5.92853V96.7994Z" fill="url(#paint22_linear_1894_233)" stroke="url(#paint23_linear_1894_233)" stroke-width="0.3"/>
<path id="Vector_13" d="M66.95 44.426H59.8771C58.8869 44.426 58.0842 43.6233 58.0844 42.633L66.95 44.426ZM66.95 44.426C67.9401 44.426 68.7428 43.6233 68.7428 42.633M66.95 44.426L68.7428 42.633M68.7428 42.633C68.7428 41.6429 67.9401 40.8402 66.95 40.8402M68.7428 42.633L66.95 40.8402M66.95 40.8402H59.8771M66.95 40.8402H59.8771M59.8771 40.8402C58.8871 40.8402 58.0844 41.6429 58.0844 42.633L59.8771 40.8402Z" fill="url(#paint24_linear_1894_233)" stroke="url(#paint25_linear_1894_233)" stroke-width="0.3"/>
<path id="Vector_14" d="M66.95 26.0935H59.8771C58.8869 26.0935 58.0842 25.2908 58.0844 24.3007L66.95 26.0935ZM66.95 26.0935C67.9401 26.0935 68.7428 25.2908 68.7428 24.3007M66.95 26.0935L68.7428 24.3007M68.7428 24.3007C68.7428 23.3106 67.9401 22.5077 66.95 22.5077M68.7428 24.3007L66.95 22.5077M66.95 22.5077H59.8771M66.95 22.5077H59.8771M59.8771 22.5077C58.8871 22.5077 58.0844 23.3104 58.0844 24.3007L59.8771 22.5077Z" fill="url(#paint26_linear_1894_233)" stroke="url(#paint27_linear_1894_233)" stroke-width="0.3"/>
<path id="Vector_15" d="M59.8771 35.26H66.95C67.9401 35.26 68.7428 34.4573 68.7428 33.4672C68.7428 32.4771 67.9401 31.6742 66.95 31.6742H59.8771C58.8871 31.6742 58.0844 32.4769 58.0844 33.4672C58.0844 34.4575 58.8869 35.26 59.8771 35.26Z" fill="url(#paint28_linear_1894_233)" stroke="url(#paint29_linear_1894_233)" stroke-width="0.3"/>
</g>
</g>
</g>
<defs>
<linearGradient id="paint0_linear_1894_233" x1="11.2793" y1="24.3006" x2="37.559" y2="24.3006" gradientUnits="userSpaceOnUse">
<stop stop-color="#F62431"/>
<stop offset="1" stop-color="#AA000B"/>
</linearGradient>
<linearGradient id="paint1_linear_1894_233" x1="11.2793" y1="24.3006" x2="37.559" y2="24.3006" gradientUnits="userSpaceOnUse">
<stop stop-color="#F62431"/>
<stop offset="1" stop-color="#AA000B"/>
</linearGradient>
<linearGradient id="paint2_linear_1894_233" x1="11.2793" y1="33.4671" x2="50.5161" y2="33.4671" gradientUnits="userSpaceOnUse">
<stop stop-color="#F62431"/>
<stop offset="1" stop-color="#AA000B"/>
</linearGradient>
<linearGradient id="paint3_linear_1894_233" x1="11.2793" y1="33.4671" x2="50.5161" y2="33.4671" gradientUnits="userSpaceOnUse">
<stop stop-color="#F62431"/>
<stop offset="1" stop-color="#AA000B"/>
</linearGradient>
<linearGradient id="paint4_linear_1894_233" x1="11.2793" y1="42.6331" x2="37.559" y2="42.6331" gradientUnits="userSpaceOnUse">
<stop stop-color="#F62431"/>
<stop offset="1" stop-color="#AA000B"/>
</linearGradient>
<linearGradient id="paint5_linear_1894_233" x1="11.2793" y1="42.6331" x2="37.559" y2="42.6331" gradientUnits="userSpaceOnUse">
<stop stop-color="#F62431"/>
<stop offset="1" stop-color="#AA000B"/>
</linearGradient>
<linearGradient id="paint6_linear_1894_233" x1="9.43945" y1="79.3012" x2="47.6872" y2="79.3012" gradientUnits="userSpaceOnUse">
<stop stop-color="#F62431"/>
<stop offset="1" stop-color="#AA000B"/>
</linearGradient>
<linearGradient id="paint7_linear_1894_233" x1="9.43945" y1="79.3012" x2="47.6872" y2="79.3012" gradientUnits="userSpaceOnUse">
<stop stop-color="#F62431"/>
<stop offset="1" stop-color="#AA000B"/>
</linearGradient>
<linearGradient id="paint8_linear_1894_233" x1="11.2793" y1="51.7972" x2="27.4153" y2="51.7972" gradientUnits="userSpaceOnUse">
<stop stop-color="#F62431"/>
<stop offset="1" stop-color="#AA000B"/>
</linearGradient>
<linearGradient id="paint9_linear_1894_233" x1="11.2793" y1="51.7972" x2="27.4153" y2="51.7972" gradientUnits="userSpaceOnUse">
<stop stop-color="#F62431"/>
<stop offset="1" stop-color="#AA000B"/>
</linearGradient>
<linearGradient id="paint10_linear_1894_233" x1="11.2793" y1="60.9632" x2="37.559" y2="60.9632" gradientUnits="userSpaceOnUse">
<stop stop-color="#F62431"/>
<stop offset="1" stop-color="#AA000B"/>
</linearGradient>
<linearGradient id="paint11_linear_1894_233" x1="11.2793" y1="60.9632" x2="37.559" y2="60.9632" gradientUnits="userSpaceOnUse">
<stop stop-color="#F62431"/>
<stop offset="1" stop-color="#AA000B"/>
</linearGradient>
<linearGradient id="paint12_linear_1894_233" x1="11.2793" y1="15.137" x2="50.5161" y2="15.137" gradientUnits="userSpaceOnUse">
<stop stop-color="#F62431"/>
<stop offset="1" stop-color="#AA000B"/>
</linearGradient>
<linearGradient id="paint13_linear_1894_233" x1="11.2793" y1="15.137" x2="50.5161" y2="15.137" gradientUnits="userSpaceOnUse">
<stop stop-color="#F62431"/>
<stop offset="1" stop-color="#AA000B"/>
</linearGradient>
<linearGradient id="paint14_linear_1894_233" x1="58.2344" y1="60.9632" x2="68.5928" y2="60.9632" gradientUnits="userSpaceOnUse">
<stop stop-color="#F62431"/>
<stop offset="1" stop-color="#AA000B"/>
</linearGradient>
<linearGradient id="paint15_linear_1894_233" x1="58.2344" y1="60.9632" x2="68.5928" y2="60.9632" gradientUnits="userSpaceOnUse">
<stop stop-color="#F62431"/>
<stop offset="1" stop-color="#AA000B"/>
</linearGradient>
<linearGradient id="paint16_linear_1894_233" x1="58.1719" y1="79.1363" x2="68.6555" y2="79.1363" gradientUnits="userSpaceOnUse">
<stop stop-color="#F62431"/>
<stop offset="1" stop-color="#AA000B"/>
</linearGradient>
<linearGradient id="paint17_linear_1894_233" x1="58.1719" y1="79.1363" x2="68.6555" y2="79.1363" gradientUnits="userSpaceOnUse">
<stop stop-color="#F62431"/>
<stop offset="1" stop-color="#AA000B"/>
</linearGradient>
<linearGradient id="paint18_linear_1894_233" x1="58.2344" y1="15.137" x2="68.5928" y2="15.137" gradientUnits="userSpaceOnUse">
<stop stop-color="#F62431"/>
<stop offset="1" stop-color="#AA000B"/>
</linearGradient>
<linearGradient id="paint19_linear_1894_233" x1="58.2344" y1="15.137" x2="68.5928" y2="15.137" gradientUnits="userSpaceOnUse">
<stop stop-color="#F62431"/>
<stop offset="1" stop-color="#AA000B"/>
</linearGradient>
<linearGradient id="paint20_linear_1894_233" x1="58.2344" y1="51.7972" x2="68.5928" y2="51.7972" gradientUnits="userSpaceOnUse">
<stop stop-color="#F62431"/>
<stop offset="1" stop-color="#AA000B"/>
</linearGradient>
<linearGradient id="paint21_linear_1894_233" x1="58.2344" y1="51.7972" x2="68.5928" y2="51.7972" gradientUnits="userSpaceOnUse">
<stop stop-color="#F62431"/>
<stop offset="1" stop-color="#AA000B"/>
</linearGradient>
<linearGradient id="paint22_linear_1894_233" x1="1" y1="51" x2="78.7379" y2="51" gradientUnits="userSpaceOnUse">
<stop stop-color="#F62431"/>
<stop offset="1" stop-color="#AA000B"/>
</linearGradient>
<linearGradient id="paint23_linear_1894_233" x1="1" y1="51" x2="78.7379" y2="51" gradientUnits="userSpaceOnUse">
<stop stop-color="#F62431"/>
<stop offset="1" stop-color="#AA000B"/>
</linearGradient>
<linearGradient id="paint24_linear_1894_233" x1="58.2344" y1="42.6331" x2="68.5928" y2="42.6331" gradientUnits="userSpaceOnUse">
<stop stop-color="#F62431"/>
<stop offset="1" stop-color="#AA000B"/>
</linearGradient>
<linearGradient id="paint25_linear_1894_233" x1="58.2344" y1="42.6331" x2="68.5928" y2="42.6331" gradientUnits="userSpaceOnUse">
<stop stop-color="#F62431"/>
<stop offset="1" stop-color="#AA000B"/>
</linearGradient>
<linearGradient id="paint26_linear_1894_233" x1="58.2344" y1="24.3006" x2="68.5928" y2="24.3006" gradientUnits="userSpaceOnUse">
<stop stop-color="#F62431"/>
<stop offset="1" stop-color="#AA000B"/>
</linearGradient>
<linearGradient id="paint27_linear_1894_233" x1="58.2344" y1="24.3006" x2="68.5928" y2="24.3006" gradientUnits="userSpaceOnUse">
<stop stop-color="#F62431"/>
<stop offset="1" stop-color="#AA000B"/>
</linearGradient>
<linearGradient id="paint28_linear_1894_233" x1="58.2344" y1="33.4671" x2="68.5928" y2="33.4671" gradientUnits="userSpaceOnUse">
<stop stop-color="#F62431"/>
<stop offset="1" stop-color="#AA000B"/>
</linearGradient>
<linearGradient id="paint29_linear_1894_233" x1="58.2344" y1="33.4671" x2="68.5928" y2="33.4671" gradientUnits="userSpaceOnUse">
<stop stop-color="#F62431"/>
<stop offset="1" stop-color="#AA000B"/>
</linearGradient>
</defs>
</svg>
