<svg width="101" height="100" viewBox="0 0 101 100" fill="none" xmlns="http://www.w3.org/2000/svg">
<g id="Group 95">
<path id="Vector" d="M98.8326 33.3336H2.16665C1.24544 33.3336 0.5 32.5874 0.5 31.667V18.3339C0.5 17.6234 0.950843 16.9903 1.62304 16.7592L49.956 0.0927719C50.3076 -0.030924 50.6909 -0.030924 51.0424 0.0927719L99.3754 16.7592C100.048 16.9903 100.498 17.6234 100.499 18.3339V31.667C100.499 32.5874 99.753 33.3336 98.8326 33.3336ZM3.83331 30.0003H97.1659V19.522L50.4996 3.43093L3.83331 19.522V30.0003Z" fill="url(#paint0_linear_1894_345)"/>
<path id="Vector_2" d="M92.1654 26.6663H8.83267C7.91145 26.6663 7.16602 25.9201 7.16602 24.9997V23.0865C7.16602 22.3752 7.61686 21.7429 8.28905 21.5118L49.9554 7.14355C50.307 7.01986 50.6903 7.01986 51.0418 7.14355L92.7082 21.5118C93.3804 21.7429 93.8312 22.3752 93.832 23.0865V24.9997C93.832 25.9201 93.0858 26.6663 92.1654 26.6663ZM13.2288 23.3331H87.7668L50.499 10.4817L13.2288 23.3331Z" fill="url(#paint1_linear_1894_345)"/>
<path id="Vector_3" d="M98.8326 90H95.4993V85C95.4993 84.0796 94.753 83.3334 93.8326 83.3334H92.166V78.3335C92.166 77.4131 91.4197 76.6668 90.4993 76.6668H88.8327V46.4305C91.7664 45.6729 93.8212 43.0313 93.8326 40.0008V38.3341C93.8326 37.4137 93.0864 36.6675 92.166 36.6675H68.8328C67.9116 36.6675 67.1662 37.4137 67.1662 38.3341V40.0008C67.1767 43.0313 69.2316 45.6729 72.1661 46.4305V76.6668H58.8329V46.4305C61.7666 45.6729 63.8215 43.0313 63.8329 40.0008V38.3341C63.8329 37.4137 63.0866 36.6675 62.1662 36.6675H38.833C37.9118 36.6675 37.1664 37.4137 37.1664 38.3341V40.0008C37.177 43.0313 39.2318 45.6729 42.1664 46.4305V76.6668H28.8331V46.4305C31.7669 45.6729 33.8217 43.0313 33.8331 40.0008V38.3341C33.8331 37.4137 33.0868 36.6675 32.1664 36.6675H8.83327C7.91205 36.6675 7.16662 37.4137 7.16662 38.3341V40.0008C7.1772 43.0313 9.23203 45.6729 12.1666 46.4305V76.6668H10.4999C9.57871 76.6668 8.83327 77.4131 8.83327 78.3335V83.3334H7.16662C6.2454 83.3334 5.49996 84.0796 5.49996 85V90H2.16665C1.24544 90 0.5 90.7462 0.5 91.6666V98.3331C0.5 99.2535 1.24544 99.9998 2.16665 99.9998H98.8326C99.753 99.9998 100.499 99.2535 100.499 98.3331V91.6666C100.499 90.7462 99.753 90 98.8326 90ZM70.4995 40.0008H90.4993C90.4993 41.8416 89.0068 43.334 87.166 43.334H73.8328C71.9912 43.334 70.4995 41.8416 70.4995 40.0008ZM75.4994 46.6673H85.4994V76.6668H75.4994V46.6673ZM40.4997 40.0008H60.4995C60.4995 41.8416 59.007 43.334 57.1662 43.334H43.833C41.9914 43.334 40.4997 41.8416 40.4997 40.0008ZM45.4997 46.6673H55.4996V76.6668H45.4997V46.6673ZM10.4999 40.0008H30.4998C30.4998 41.8416 29.0073 43.334 27.1665 43.334H13.8332C11.9916 43.334 10.4999 41.8416 10.4999 40.0008ZM15.4999 46.6673H25.4998V76.6668H15.4999V46.6673ZM12.1666 80.0001H88.8327V83.3334H12.1666V80.0001ZM8.83327 86.6667H92.166V90H8.83327V86.6667ZM97.1659 96.6665H3.83331V93.3332H97.1659V96.6665Z" fill="url(#paint2_linear_1894_345)"/>
</g>
<defs>
<linearGradient id="paint0_linear_1894_345" x1="0.500001" y1="16.6668" x2="100.499" y2="16.6668" gradientUnits="userSpaceOnUse">
<stop stop-color="#F62431"/>
<stop offset="1" stop-color="#AA000B"/>
</linearGradient>
<linearGradient id="paint1_linear_1894_345" x1="7.16602" y1="16.8586" x2="93.832" y2="16.8586" gradientUnits="userSpaceOnUse">
<stop stop-color="#F62431"/>
<stop offset="1" stop-color="#AA000B"/>
</linearGradient>
<linearGradient id="paint2_linear_1894_345" x1="0.500001" y1="68.3336" x2="100.499" y2="68.3336" gradientUnits="userSpaceOnUse">
<stop stop-color="#F62431"/>
<stop offset="1" stop-color="#AA000B"/>
</linearGradient>
</defs>
</svg>
