<svg width="77" height="102" viewBox="0 0 77 102" fill="none" xmlns="http://www.w3.org/2000/svg">
<g id="path20392-9-9">
<mask id="path-1-outside-1_1894_231" maskUnits="userSpaceOnUse" x="0" y="0" width="77" height="102" fill="black">
<rect fill="white" width="77" height="102"/>
<path d="M38.4401 1C29.6007 1 18.7887 5.69701 13.2599 13.6743C9.83989 14.1573 7.3956 17.7822 8.44866 21.6104C3.32865 24.3341 1.8196 30.9625 5.19038 35.6629C-1.87295 39.1283 0.759991 52.3298 7.40385 54.3075C3.08414 64.0925 7.11148 74.0696 14.2602 80.1229C11.4956 86.2504 10.887 93.6817 10.1635 99.6344C10.076 100.36 10.6424 100.999 11.3735 101H65.5067C66.2405 101.002 66.8095 100.36 66.7198 99.6313C65.774 92.5068 65.2773 85.7069 62.6104 80.1229C69.7585 74.0679 73.7928 64.1005 69.4795 54.317C74.7717 52.5428 76.951 45.1555 75.3101 39.9247C74.7315 38.154 73.5245 36.6353 71.82 35.6438C75.1468 30.9333 73.5387 24.3106 68.4347 21.6008C69.4806 17.7761 67.0373 14.1571 63.6203 13.6743C58.0914 5.69701 47.2795 1 38.4401 1ZM38.4401 3.43895C46.5202 3.43895 57.0833 8.09071 61.9054 15.3701C62.1312 15.711 62.5128 15.9161 62.9217 15.9163C65.0572 15.9163 67.3592 18.6819 66.0275 21.6199C65.7395 22.2563 66.0438 23.0041 66.6944 23.2586C70.9044 24.9114 72.4838 30.0819 70.302 33.7988C68.3456 31.6232 65.5177 30.2451 62.3627 30.2451C60.6505 30.1544 60.6505 32.7717 62.3627 32.6809C66.9477 32.6809 70.5974 36.33 70.5974 40.9155C70.5974 45.501 66.9482 49.1628 62.3627 49.1628H59.4824V31.4583C59.4824 29.7207 57.0339 29.8601 57.0339 31.4583V35.1897C54.0685 37.1964 49.4249 35.2646 49.4249 31.182V24.8559C49.4249 23.3793 47.7597 23.2281 47.24 24.1128C45.3176 26.5985 42.3856 29.4151 37.8653 31.8171C31.9184 34.9772 26.9222 34.7499 23.5809 33.9417C21.9564 33.4901 21.3548 35.976 23.0061 36.3171C31.3773 38.5544 40.6248 34.7887 46.9859 27.9386V31.182C46.9859 36.4379 52.019 39.5515 57.0339 37.9716V47.4099C57.0339 51.8838 55.4776 55.9704 52.8769 59.1663C50.1325 59.3116 47.2892 59.233 44.4644 59.233C44.1186 57.2659 42.3967 55.7493 40.336 55.7493H36.3155C34.0089 55.7493 32.1141 57.6442 32.1141 59.9508C32.1141 62.2574 34.009 64.1522 36.3155 64.1522H40.336C42.0302 64.1522 43.4975 63.1255 44.1595 61.6688H50.403C47.0865 64.4238 42.9728 66.0132 38.4401 66.0132C27.0164 65.6737 19.8495 57.0284 19.8495 47.4099V40.833C19.8604 40.1407 19.2936 39.5782 18.6014 39.5944C17.9279 39.605 17.3905 40.1595 17.401 40.833V44.4692C13.9657 44.4692 12.3209 41.8453 12.25 39.4642C12.25 36.672 14.462 34.4593 17.2549 34.4593H18.3124C20.5101 34.4593 20.0161 32.0204 18.6236 32.0204H17.2549C13.1535 32.0204 9.80152 35.3621 9.80152 39.4642C9.80152 44.5584 14.2611 46.9606 17.401 46.9049C17.2752 56.2702 22.6148 62.6658 28.1667 65.7687V68.7983C25.6007 70.1211 23.023 71.4843 20.8339 72.6282C18.5325 73.957 16.7999 75.7887 15.4575 77.9253C8.91925 72.1677 5.45034 63.1076 10.0778 54.171C10.4759 53.402 9.96827 52.4748 9.10603 52.3957C3.26868 51.7054 0.972775 39.1797 7.16885 37.2381C8.03266 36.9561 8.29577 35.8623 7.65473 35.2183C3.98641 31.5332 5.40827 25.1343 10.1858 23.2586C10.8363 23.0042 11.1407 22.2563 10.8527 21.6199C9.52102 18.682 11.823 15.9163 13.9585 15.9163C14.3674 15.9161 14.749 15.711 14.9747 15.3701C19.7969 8.09071 30.36 3.43895 38.4401 3.43895ZM73.0458 40.9155C74.1298 45.7122 72.0899 51.6559 67.7741 52.3957C66.9119 52.4747 66.4043 53.402 66.8024 54.1709C71.4302 63.1084 67.9611 72.1751 61.4227 77.9285C60.0839 75.7884 58.3531 73.955 56.0494 72.625C53.6031 71.3429 51.1654 70.0772 48.7167 68.8015V65.7528C50.7051 64.6352 52.4899 63.2039 54.0074 61.5259C59.933 60.9622 64.3253 57.8525 64.3253 51.4113C70.6418 50.0396 73.0781 44.7818 73.0458 40.9155ZM59.0187 51.5986H61.8927C61.9113 56.0419 59.3395 57.8171 56.1701 58.6328C57.5103 56.511 58.5036 54.1477 59.0187 51.5986ZM36.3155 58.1882H40.336C41.3336 58.1882 42.1017 58.9532 42.1017 59.9507C42.1017 60.9484 41.3336 61.7164 40.336 61.7164H36.3155C35.3179 61.7164 34.553 60.9484 34.553 59.9507C34.553 58.9532 35.3179 58.1882 36.3155 58.1882ZM30.6024 66.9278C35.9306 69.0333 41.3876 68.8542 46.2777 66.9278V69.0396L39.4373 76.1659C39.0112 76.6078 38.9799 77.2974 39.3642 77.776L40.4503 79.1193C38.9553 79.5291 37.8108 79.4583 36.4299 79.1193L37.516 77.776C37.9011 77.2982 37.8712 76.6086 37.4461 76.1659L30.6024 69.0396V66.9278ZM29.1384 71.0435L34.9468 77.0805L30.5802 82.4697L28.154 75.7848C27.6098 74.2248 25.2706 75.0801 25.8611 76.6232L29.0305 85.3374C29.3568 86.2236 30.5232 86.4186 31.1201 85.6867L34.7753 81.1645C37.3119 82.1206 39.9376 81.9958 42.1049 81.1645L45.7633 85.6867C46.3604 86.4147 47.5223 86.2202 47.8497 85.3374L52.1973 73.3713L54.8236 74.74C58.4465 76.8317 60.4814 80.3677 61.7975 84.8325C62.9941 88.8923 63.4896 93.7299 64.0681 98.5515H55.8335V91.0981C55.8335 89.3265 53.385 89.4215 53.385 91.0981V98.5515H22.7298V91.0981C22.7298 89.2218 20.2814 89.5666 20.2814 91.0981V98.5515H12.8153C13.3938 93.7299 13.886 88.8923 15.0827 84.8325C16.3988 80.3677 18.4337 76.8317 22.0566 74.74C24.4313 73.4806 26.7563 72.2826 29.1384 71.0435ZM47.7417 71.0435L50.0124 72.2185L46.3032 82.4697L41.9334 77.0805L47.7417 71.0435Z"/>
</mask>
<path d="M38.4401 1C29.6007 1 18.7887 5.69701 13.2599 13.6743C9.83989 14.1573 7.3956 17.7822 8.44866 21.6104C3.32865 24.3341 1.8196 30.9625 5.19038 35.6629C-1.87295 39.1283 0.759991 52.3298 7.40385 54.3075C3.08414 64.0925 7.11148 74.0696 14.2602 80.1229C11.4956 86.2504 10.887 93.6817 10.1635 99.6344C10.076 100.36 10.6424 100.999 11.3735 101H65.5067C66.2405 101.002 66.8095 100.36 66.7198 99.6313C65.774 92.5068 65.2773 85.7069 62.6104 80.1229C69.7585 74.0679 73.7928 64.1005 69.4795 54.317C74.7717 52.5428 76.951 45.1555 75.3101 39.9247C74.7315 38.154 73.5245 36.6353 71.82 35.6438C75.1468 30.9333 73.5387 24.3106 68.4347 21.6008C69.4806 17.7761 67.0373 14.1571 63.6203 13.6743C58.0914 5.69701 47.2795 1 38.4401 1ZM38.4401 3.43895C46.5202 3.43895 57.0833 8.09071 61.9054 15.3701C62.1312 15.711 62.5128 15.9161 62.9217 15.9163C65.0572 15.9163 67.3592 18.6819 66.0275 21.6199C65.7395 22.2563 66.0438 23.0041 66.6944 23.2586C70.9044 24.9114 72.4838 30.0819 70.302 33.7988C68.3456 31.6232 65.5177 30.2451 62.3627 30.2451C60.6505 30.1544 60.6505 32.7717 62.3627 32.6809C66.9477 32.6809 70.5974 36.33 70.5974 40.9155C70.5974 45.501 66.9482 49.1628 62.3627 49.1628H59.4824V31.4583C59.4824 29.7207 57.0339 29.8601 57.0339 31.4583V35.1897C54.0685 37.1964 49.4249 35.2646 49.4249 31.182V24.8559C49.4249 23.3793 47.7597 23.2281 47.24 24.1128C45.3176 26.5985 42.3856 29.4151 37.8653 31.8171C31.9184 34.9772 26.9222 34.7499 23.5809 33.9417C21.9564 33.4901 21.3548 35.976 23.0061 36.3171C31.3773 38.5544 40.6248 34.7887 46.9859 27.9386V31.182C46.9859 36.4379 52.019 39.5515 57.0339 37.9716V47.4099C57.0339 51.8838 55.4776 55.9704 52.8769 59.1663C50.1325 59.3116 47.2892 59.233 44.4644 59.233C44.1186 57.2659 42.3967 55.7493 40.336 55.7493H36.3155C34.0089 55.7493 32.1141 57.6442 32.1141 59.9508C32.1141 62.2574 34.009 64.1522 36.3155 64.1522H40.336C42.0302 64.1522 43.4975 63.1255 44.1595 61.6688H50.403C47.0865 64.4238 42.9728 66.0132 38.4401 66.0132C27.0164 65.6737 19.8495 57.0284 19.8495 47.4099V40.833C19.8604 40.1407 19.2936 39.5782 18.6014 39.5944C17.9279 39.605 17.3905 40.1595 17.401 40.833V44.4692C13.9657 44.4692 12.3209 41.8453 12.25 39.4642C12.25 36.672 14.462 34.4593 17.2549 34.4593H18.3124C20.5101 34.4593 20.0161 32.0204 18.6236 32.0204H17.2549C13.1535 32.0204 9.80152 35.3621 9.80152 39.4642C9.80152 44.5584 14.2611 46.9606 17.401 46.9049C17.2752 56.2702 22.6148 62.6658 28.1667 65.7687V68.7983C25.6007 70.1211 23.023 71.4843 20.8339 72.6282C18.5325 73.957 16.7999 75.7887 15.4575 77.9253C8.91925 72.1677 5.45034 63.1076 10.0778 54.171C10.4759 53.402 9.96827 52.4748 9.10603 52.3957C3.26868 51.7054 0.972775 39.1797 7.16885 37.2381C8.03266 36.9561 8.29577 35.8623 7.65473 35.2183C3.98641 31.5332 5.40827 25.1343 10.1858 23.2586C10.8363 23.0042 11.1407 22.2563 10.8527 21.6199C9.52102 18.682 11.823 15.9163 13.9585 15.9163C14.3674 15.9161 14.749 15.711 14.9747 15.3701C19.7969 8.09071 30.36 3.43895 38.4401 3.43895ZM73.0458 40.9155C74.1298 45.7122 72.0899 51.6559 67.7741 52.3957C66.9119 52.4747 66.4043 53.402 66.8024 54.1709C71.4302 63.1084 67.9611 72.1751 61.4227 77.9285C60.0839 75.7884 58.3531 73.955 56.0494 72.625C53.6031 71.3429 51.1654 70.0772 48.7167 68.8015V65.7528C50.7051 64.6352 52.4899 63.2039 54.0074 61.5259C59.933 60.9622 64.3253 57.8525 64.3253 51.4113C70.6418 50.0396 73.0781 44.7818 73.0458 40.9155ZM59.0187 51.5986H61.8927C61.9113 56.0419 59.3395 57.8171 56.1701 58.6328C57.5103 56.511 58.5036 54.1477 59.0187 51.5986ZM36.3155 58.1882H40.336C41.3336 58.1882 42.1017 58.9532 42.1017 59.9507C42.1017 60.9484 41.3336 61.7164 40.336 61.7164H36.3155C35.3179 61.7164 34.553 60.9484 34.553 59.9507C34.553 58.9532 35.3179 58.1882 36.3155 58.1882ZM30.6024 66.9278C35.9306 69.0333 41.3876 68.8542 46.2777 66.9278V69.0396L39.4373 76.1659C39.0112 76.6078 38.9799 77.2974 39.3642 77.776L40.4503 79.1193C38.9553 79.5291 37.8108 79.4583 36.4299 79.1193L37.516 77.776C37.9011 77.2982 37.8712 76.6086 37.4461 76.1659L30.6024 69.0396V66.9278ZM29.1384 71.0435L34.9468 77.0805L30.5802 82.4697L28.154 75.7848C27.6098 74.2248 25.2706 75.0801 25.8611 76.6232L29.0305 85.3374C29.3568 86.2236 30.5232 86.4186 31.1201 85.6867L34.7753 81.1645C37.3119 82.1206 39.9376 81.9958 42.1049 81.1645L45.7633 85.6867C46.3604 86.4147 47.5223 86.2202 47.8497 85.3374L52.1973 73.3713L54.8236 74.74C58.4465 76.8317 60.4814 80.3677 61.7975 84.8325C62.9941 88.8923 63.4896 93.7299 64.0681 98.5515H55.8335V91.0981C55.8335 89.3265 53.385 89.4215 53.385 91.0981V98.5515H22.7298V91.0981C22.7298 89.2218 20.2814 89.5666 20.2814 91.0981V98.5515H12.8153C13.3938 93.7299 13.886 88.8923 15.0827 84.8325C16.3988 80.3677 18.4337 76.8317 22.0566 74.74C24.4313 73.4806 26.7563 72.2826 29.1384 71.0435ZM47.7417 71.0435L50.0124 72.2185L46.3032 82.4697L41.9334 77.0805L47.7417 71.0435Z" fill="url(#paint0_linear_1894_231)"/>
<path d="M38.4401 1C29.6007 1 18.7887 5.69701 13.2599 13.6743C9.83989 14.1573 7.3956 17.7822 8.44866 21.6104C3.32865 24.3341 1.8196 30.9625 5.19038 35.6629C-1.87295 39.1283 0.759991 52.3298 7.40385 54.3075C3.08414 64.0925 7.11148 74.0696 14.2602 80.1229C11.4956 86.2504 10.887 93.6817 10.1635 99.6344C10.076 100.36 10.6424 100.999 11.3735 101H65.5067C66.2405 101.002 66.8095 100.36 66.7198 99.6313C65.774 92.5068 65.2773 85.7069 62.6104 80.1229C69.7585 74.0679 73.7928 64.1005 69.4795 54.317C74.7717 52.5428 76.951 45.1555 75.3101 39.9247C74.7315 38.154 73.5245 36.6353 71.82 35.6438C75.1468 30.9333 73.5387 24.3106 68.4347 21.6008C69.4806 17.7761 67.0373 14.1571 63.6203 13.6743C58.0914 5.69701 47.2795 1 38.4401 1ZM38.4401 3.43895C46.5202 3.43895 57.0833 8.09071 61.9054 15.3701C62.1312 15.711 62.5128 15.9161 62.9217 15.9163C65.0572 15.9163 67.3592 18.6819 66.0275 21.6199C65.7395 22.2563 66.0438 23.0041 66.6944 23.2586C70.9044 24.9114 72.4838 30.0819 70.302 33.7988C68.3456 31.6232 65.5177 30.2451 62.3627 30.2451C60.6505 30.1544 60.6505 32.7717 62.3627 32.6809C66.9477 32.6809 70.5974 36.33 70.5974 40.9155C70.5974 45.501 66.9482 49.1628 62.3627 49.1628H59.4824V31.4583C59.4824 29.7207 57.0339 29.8601 57.0339 31.4583V35.1897C54.0685 37.1964 49.4249 35.2646 49.4249 31.182V24.8559C49.4249 23.3793 47.7597 23.2281 47.24 24.1128C45.3176 26.5985 42.3856 29.4151 37.8653 31.8171C31.9184 34.9772 26.9222 34.7499 23.5809 33.9417C21.9564 33.4901 21.3548 35.976 23.0061 36.3171C31.3773 38.5544 40.6248 34.7887 46.9859 27.9386V31.182C46.9859 36.4379 52.019 39.5515 57.0339 37.9716V47.4099C57.0339 51.8838 55.4776 55.9704 52.8769 59.1663C50.1325 59.3116 47.2892 59.233 44.4644 59.233C44.1186 57.2659 42.3967 55.7493 40.336 55.7493H36.3155C34.0089 55.7493 32.1141 57.6442 32.1141 59.9508C32.1141 62.2574 34.009 64.1522 36.3155 64.1522H40.336C42.0302 64.1522 43.4975 63.1255 44.1595 61.6688H50.403C47.0865 64.4238 42.9728 66.0132 38.4401 66.0132C27.0164 65.6737 19.8495 57.0284 19.8495 47.4099V40.833C19.8604 40.1407 19.2936 39.5782 18.6014 39.5944C17.9279 39.605 17.3905 40.1595 17.401 40.833V44.4692C13.9657 44.4692 12.3209 41.8453 12.25 39.4642C12.25 36.672 14.462 34.4593 17.2549 34.4593H18.3124C20.5101 34.4593 20.0161 32.0204 18.6236 32.0204H17.2549C13.1535 32.0204 9.80152 35.3621 9.80152 39.4642C9.80152 44.5584 14.2611 46.9606 17.401 46.9049C17.2752 56.2702 22.6148 62.6658 28.1667 65.7687V68.7983C25.6007 70.1211 23.023 71.4843 20.8339 72.6282C18.5325 73.957 16.7999 75.7887 15.4575 77.9253C8.91925 72.1677 5.45034 63.1076 10.0778 54.171C10.4759 53.402 9.96827 52.4748 9.10603 52.3957C3.26868 51.7054 0.972775 39.1797 7.16885 37.2381C8.03266 36.9561 8.29577 35.8623 7.65473 35.2183C3.98641 31.5332 5.40827 25.1343 10.1858 23.2586C10.8363 23.0042 11.1407 22.2563 10.8527 21.6199C9.52102 18.682 11.823 15.9163 13.9585 15.9163C14.3674 15.9161 14.749 15.711 14.9747 15.3701C19.7969 8.09071 30.36 3.43895 38.4401 3.43895ZM73.0458 40.9155C74.1298 45.7122 72.0899 51.6559 67.7741 52.3957C66.9119 52.4747 66.4043 53.402 66.8024 54.1709C71.4302 63.1084 67.9611 72.1751 61.4227 77.9285C60.0839 75.7884 58.3531 73.955 56.0494 72.625C53.6031 71.3429 51.1654 70.0772 48.7167 68.8015V65.7528C50.7051 64.6352 52.4899 63.2039 54.0074 61.5259C59.933 60.9622 64.3253 57.8525 64.3253 51.4113C70.6418 50.0396 73.0781 44.7818 73.0458 40.9155ZM59.0187 51.5986H61.8927C61.9113 56.0419 59.3395 57.8171 56.1701 58.6328C57.5103 56.511 58.5036 54.1477 59.0187 51.5986ZM36.3155 58.1882H40.336C41.3336 58.1882 42.1017 58.9532 42.1017 59.9507C42.1017 60.9484 41.3336 61.7164 40.336 61.7164H36.3155C35.3179 61.7164 34.553 60.9484 34.553 59.9507C34.553 58.9532 35.3179 58.1882 36.3155 58.1882ZM30.6024 66.9278C35.9306 69.0333 41.3876 68.8542 46.2777 66.9278V69.0396L39.4373 76.1659C39.0112 76.6078 38.9799 77.2974 39.3642 77.776L40.4503 79.1193C38.9553 79.5291 37.8108 79.4583 36.4299 79.1193L37.516 77.776C37.9011 77.2982 37.8712 76.6086 37.4461 76.1659L30.6024 69.0396V66.9278ZM29.1384 71.0435L34.9468 77.0805L30.5802 82.4697L28.154 75.7848C27.6098 74.2248 25.2706 75.0801 25.8611 76.6232L29.0305 85.3374C29.3568 86.2236 30.5232 86.4186 31.1201 85.6867L34.7753 81.1645C37.3119 82.1206 39.9376 81.9958 42.1049 81.1645L45.7633 85.6867C46.3604 86.4147 47.5223 86.2202 47.8497 85.3374L52.1973 73.3713L54.8236 74.74C58.4465 76.8317 60.4814 80.3677 61.7975 84.8325C62.9941 88.8923 63.4896 93.7299 64.0681 98.5515H55.8335V91.0981C55.8335 89.3265 53.385 89.4215 53.385 91.0981V98.5515H22.7298V91.0981C22.7298 89.2218 20.2814 89.5666 20.2814 91.0981V98.5515H12.8153C13.3938 93.7299 13.886 88.8923 15.0827 84.8325C16.3988 80.3677 18.4337 76.8317 22.0566 74.74C24.4313 73.4806 26.7563 72.2826 29.1384 71.0435ZM47.7417 71.0435L50.0124 72.2185L46.3032 82.4697L41.9334 77.0805L47.7417 71.0435Z" stroke="url(#paint1_linear_1894_231)" stroke-width="0.6" mask="url(#path-1-outside-1_1894_231)"/>
</g>
<defs>
<linearGradient id="paint0_linear_1894_231" x1="1" y1="51" x2="75.8459" y2="51" gradientUnits="userSpaceOnUse">
<stop stop-color="#F62431"/>
<stop offset="1" stop-color="#AA000B"/>
</linearGradient>
<linearGradient id="paint1_linear_1894_231" x1="1" y1="51" x2="75.8459" y2="51" gradientUnits="userSpaceOnUse">
<stop stop-color="#F62431"/>
<stop offset="1" stop-color="#AA000B"/>
</linearGradient>
</defs>
</svg>
