<svg width="84" height="100" viewBox="0 0 84 100" fill="none" xmlns="http://www.w3.org/2000/svg">
<g id="line_expanded">
<g id="Group">
<path id="Vector" d="M81.75 8.33333H75.0833C74.25 3.75 70.0833 0 65.0833 0H10.9167C5.08333 0 0.5 4.58333 0.5 10.4167V89.5833C0.5 95.4167 5.08333 100 10.9167 100H73.4167C74.25 100 75.0833 99.5833 75.5 98.75C75.9167 97.9167 75.5 97.0833 75.0833 96.6667C72.5833 94.1667 71.3333 91.6667 71.3333 89.5833C71.3333 87.5 72.5833 85 75.0833 82.9167C75.5 82.5 75.5 82.0833 75.5 81.25V54.1667H81.75C83 54.1667 83.8333 53.3333 83.8333 52.0833V10.4167C83.8333 9.16667 83 8.33333 81.75 8.33333ZM79.6667 20.8333H75.5V12.5H79.6667V20.8333ZM79.6667 25V33.3333H75.5V25H79.6667ZM71.3333 10.4167V79.1667H17.1667V4.16667H65.0833C68.4167 4.16667 71.3333 7.08333 71.3333 10.4167ZM10.9167 4.16667H13V79.1667H10.9167C8.41667 79.1667 6.33333 80 4.66667 81.25V10.4167C4.66667 7.08333 7.58333 4.16667 10.9167 4.16667ZM10.9167 95.8333C7.58333 95.8333 4.66667 92.9167 4.66667 89.5833C4.66667 86.25 7.58333 83.3333 10.9167 83.3333H69.25C68.4167 84.5833 68 86.25 67.5833 87.5H10.9167C9.66667 87.5 8.83333 88.3333 8.83333 89.5833C8.83333 90.8333 9.66667 91.6667 10.9167 91.6667H67.5833C68 92.9167 68.4167 94.5833 69.25 95.8333H10.9167ZM75.5 50V37.5H79.6667V50H75.5Z" fill="url(#paint0_linear_1894_281)"/>
<path id="Vector_2" d="M37.7147 23.9639L37.7212 23.9587L37.7271 23.9528C39.6851 21.9801 42.5162 21.1007 45.3516 21.5401L45.3597 21.5414L45.3678 21.5417C50.1475 21.7606 54.0863 26.3675 54.0863 31.659V32.3286C54.0863 32.9645 53.8766 33.4825 53.5206 33.8411C53.1648 34.1996 52.6511 34.4106 52.0209 34.4106C51.3907 34.4106 50.877 34.1996 50.5212 33.8411C50.1652 33.4825 49.9555 32.9645 49.9555 32.3286V26.7487C49.9555 26.3801 49.8329 26.0612 49.6073 25.8339C49.3816 25.6065 49.0645 25.4827 48.6978 25.4827C48.331 25.4827 48.0139 25.6065 47.7882 25.8339C47.621 26.0023 47.5104 26.2211 47.4644 26.4731C46.5926 25.8732 45.526 25.4827 44.2669 25.4827C41.0814 25.4827 38.5783 28.0061 38.5783 31.2126C38.5783 34.4192 41.0814 36.9426 44.2669 36.9426C45.8069 36.9426 47.3461 36.3001 48.4738 35.0178C49.3743 36.0883 50.6863 36.9426 52.0209 36.9426C54.5418 36.9426 56.6018 34.8656 56.6018 32.3286V31.659C56.6018 25.1137 51.674 19.4658 45.3907 18.7876L45.3907 18.7875L45.3847 18.7871C42.0211 18.5611 38.6602 19.6909 35.9734 21.9466L35.973 21.9461L35.9633 21.9558C33.5026 24.4349 31.932 27.8196 31.932 31.2126C31.932 37.9904 37.5367 43.6385 44.2669 43.6385C44.6336 43.6385 44.9508 43.5147 45.1765 43.2873C45.4021 43.06 45.5246 42.7411 45.5246 42.3725C45.5246 42.004 45.4021 41.6851 45.1765 41.4578C44.9508 41.2304 44.6336 41.1065 44.2669 41.1065C38.8122 41.1065 34.4475 36.7108 34.4475 31.2126C34.4475 28.3494 35.5398 25.7168 37.7147 23.9639ZM44.2669 34.4106C42.5785 34.4106 41.0938 32.9164 41.0938 31.2126C41.0938 29.5088 42.5785 28.0146 44.2669 28.0146C45.9554 28.0146 47.4401 29.5088 47.4401 31.2126C47.4401 32.9164 45.9554 34.4106 44.2669 34.4106Z" fill="url(#paint1_linear_1894_281)" stroke="url(#paint2_linear_1894_281)" stroke-width="0.3"/>
</g>
</g>
<defs>
<linearGradient id="paint0_linear_1894_281" x1="0.5" y1="50" x2="83.8333" y2="50" gradientUnits="userSpaceOnUse">
<stop stop-color="#F62431"/>
<stop offset="1" stop-color="#AA000B"/>
</linearGradient>
<linearGradient id="paint1_linear_1894_281" x1="32.082" y1="31.1986" x2="56.4518" y2="31.1986" gradientUnits="userSpaceOnUse">
<stop stop-color="#F62431"/>
<stop offset="1" stop-color="#AA000B"/>
</linearGradient>
<linearGradient id="paint2_linear_1894_281" x1="32.082" y1="31.1986" x2="56.4518" y2="31.1986" gradientUnits="userSpaceOnUse">
<stop stop-color="#F62431"/>
<stop offset="1" stop-color="#AA000B"/>
</linearGradient>
</defs>
</svg>
