<svg width="66" height="226" viewBox="0 0 66 226" fill="none" xmlns="http://www.w3.org/2000/svg">
<rect x="-1.95312" y="175" width="28.5991" height="28.4529" rx="6" transform="rotate(44.7951 -1.95312 175)" fill="#F62431"/>
<rect x="-1.95312" y="109" width="28.5991" height="28.4529" rx="6" transform="rotate(44.7951 -1.95312 109)" fill="#F62431"/>
<rect x="-1.95312" y="43" width="28.5991" height="28.4529" rx="6" transform="rotate(44.7951 -1.95312 43)" fill="#F62431"/>
<rect x="45.0469" y="175" width="28.5991" height="28.4529" rx="6" transform="rotate(44.7951 45.0469 175)" fill="#F62431"/>
<rect x="45.0469" y="109" width="28.5991" height="28.4529" rx="6" transform="rotate(44.7951 45.0469 109)" fill="#F62431"/>
<rect x="45.0469" y="43" width="28.5991" height="28.4529" rx="6" transform="rotate(44.7951 45.0469 43)" fill="#F62431"/>
<rect x="21.6367" y="195.243" width="44.1944" height="43.9684" rx="6" transform="rotate(44.7951 21.6367 195.243)" fill="#9F1110"/>
<rect x="21.6367" y="132" width="44.1944" height="43.9684" rx="6" transform="rotate(44.7951 21.6367 132)" fill="#9F1110"/>
<rect x="21.6367" y="66" width="44.1944" height="43.9684" rx="6" transform="rotate(44.7951 21.6367 66)" fill="#9F1110"/>
<rect x="21.6367" width="44.1944" height="43.9684" rx="6" transform="rotate(44.7951 21.6367 0)" fill="#9F1110"/>
</svg>
