<svg width="66" height="264" viewBox="0 0 66 264" fill="none" xmlns="http://www.w3.org/2000/svg">
<rect x="-1.95312" y="132" width="28.5991" height="28.4529" rx="6" transform="rotate(44.7951 -1.95312 132)" fill="#F62431"/>
<rect x="-1.95312" y="195" width="28.5991" height="28.4529" rx="6" transform="rotate(44.7951 -1.95312 195)" fill="#F62431"/>
<rect x="-1.95117" y="66" width="28.5991" height="28.4529" rx="6" transform="rotate(44.7951 -1.95117 66)" fill="#F62431"/>
<rect x="-1.95117" width="28.5991" height="28.4529" rx="6" transform="rotate(44.7951 -1.95117 0)" fill="#F62431"/>
<rect x="45.0469" y="132" width="28.5991" height="28.4529" rx="6" transform="rotate(44.7951 45.0469 132)" fill="#F62431"/>
<rect x="45.0469" y="195" width="28.5991" height="28.4529" rx="6" transform="rotate(44.7951 45.0469 195)" fill="#F62431"/>
<rect x="45.0488" y="66" width="28.5991" height="28.4529" rx="6" transform="rotate(44.7951 45.0488 66)" fill="#F62431"/>
<rect x="21.6367" y="152.243" width="44.1944" height="43.9684" rx="6" transform="rotate(44.7951 21.6367 152.243)" fill="#9F1110"/>
<rect x="21.6367" y="215.243" width="44.1944" height="43.9684" rx="6" transform="rotate(44.7951 21.6367 215.243)" fill="#9F1110"/>
<rect x="21.6387" y="89" width="44.1944" height="43.9684" rx="6" transform="rotate(44.7951 21.6387 89)" fill="#9F1110"/>
<rect x="21.6387" y="23" width="44.1944" height="43.9684" rx="6" transform="rotate(44.7951 21.6387 23)" fill="#9F1110"/>
</svg>
