<svg width="65" height="245" viewBox="0 0 65 245" fill="none" xmlns="http://www.w3.org/2000/svg">
<rect x="20.0469" y="162" width="28.5991" height="28.4529" rx="6" transform="rotate(44.7951 20.0469 162)" fill="#F62431"/>
<rect x="20.0469" y="96" width="28.5991" height="28.4529" rx="6" transform="rotate(44.7951 20.0469 96)" fill="#F62431"/>
<rect x="20.0469" y="30" width="28.5991" height="28.4529" rx="6" transform="rotate(44.7951 20.0469 30)" fill="#F62431"/>
<rect x="67.0469" y="162" width="28.5991" height="28.4529" rx="6" transform="rotate(44.7951 67.0469 162)" fill="#F62431"/>
<rect x="67.0469" y="96" width="28.5991" height="28.4529" rx="6" transform="rotate(44.7951 67.0469 96)" fill="#F62431"/>
<rect x="67.0469" y="30" width="28.5991" height="28.4529" rx="6" transform="rotate(44.7951 67.0469 30)" fill="#F62431"/>
<rect x="43.6367" y="182.243" width="44.1944" height="43.9684" rx="6" transform="rotate(44.7951 43.6367 182.243)" fill="#9F1110"/>
<rect x="43.6367" y="119" width="44.1944" height="43.9684" rx="6" transform="rotate(44.7951 43.6367 119)" fill="#9F1110"/>
<rect x="43.6367" y="53" width="44.1944" height="43.9684" rx="6" transform="rotate(44.7951 43.6367 53)" fill="#9F1110"/>
<rect x="43.6367" y="-13" width="44.1944" height="43.9684" rx="6" transform="rotate(44.7951 43.6367 -13)" fill="#9F1110"/>
</svg>
