<svg width="136" height="190" viewBox="0 0 136 190" fill="none" xmlns="http://www.w3.org/2000/svg">
<path d="M116.509 174.5L91.5088 111.5L59.5088 124L84.0088 186L95.0088 168.5L116.509 174.5Z" fill="#F62431" stroke="#0F0F0F" stroke-width="3" stroke-linecap="round"/>
<path d="M76.5088 163L66.5088 138L80.5088 129.5L94.5088 119.5L76.5088 163Z" fill="#D81C1D"/>
<path d="M17.5088 174.5L47.0088 107.5L79.0088 120L50.0088 186L39.0088 168.5L17.5088 174.5Z" fill="#F62431" stroke="#0F0F0F" stroke-width="3" stroke-linecap="round"/>
<path d="M43.8066 15.7038C14.6066 10.5038 13.3066 32.8705 16.3066 44.7038C-10.4937 61.1036 5.13983 82.2039 16.3066 90.7041C9.10657 117.104 31.6399 122.037 43.8066 121.204C64.2066 146.804 84.3066 130.537 91.8067 119.204C119.407 125.204 122.307 100.704 120.307 87.7041C145.107 72.1041 130.64 52.5372 120.307 44.7038C122.307 14.204 106.807 14.204 89.3067 14.204C70.5067 -8.59596 51.14 5.70388 43.8066 15.7038Z" fill="#FFD580" stroke="black" stroke-width="3"/>
<circle cx="67.9798" cy="68.4715" r="38.6858" fill="#FF5C12" stroke="#0F0F0F"/>
<path d="M95.4351 68.4715C95.4351 90.1133 78.7618 106.811 57.1201 106.811C42.3165 97.6925 28.3838 90.1133 28.3838 68.4715C28.3838 46.8298 42.3165 34.5351 58.4263 30.1812C80.068 30.1812 95.4351 46.8298 95.4351 68.4715Z" fill="#FE8100"/>
<path d="M48.3868 34.5352C39.7875 39.5 33.3937 47.5443 30.4976 57.0422C27.6015 66.54 28.4192 76.7832 32.7853 85.7014C37.1514 94.6196 44.7404 101.548 54.0184 105.085C63.2963 108.623 73.5714 108.507 82.7669 104.76C91.9624 101.013 99.3925 93.9146 103.555 84.8998C107.718 75.8849 108.304 65.6259 105.193 56.196C102.083 46.7662 95.5084 38.8688 86.7989 34.1001C78.0894 29.3314 67.8942 28.0469 58.274 30.5063" stroke="#0F0F0F" stroke-width="3" stroke-linecap="round"/>
<path d="M51.5088 68.5L62.1755 79L83.5088 58" stroke="#0F0F0F" stroke-width="8" stroke-linecap="round"/>
</svg>
