<svg width="201" height="165" viewBox="0 0 201 165" fill="none" xmlns="http://www.w3.org/2000/svg">
<path d="M195.5 46H6L36 4H165L195.5 46Z" fill="#FFAC4A" stroke="black"/>
<path d="M167.114 3.31898L166.515 2.5H165.5H36.5H35.4951L34.8953 3.30627L4.39532 44.3063L3.44372 45.5855L4.47863 46.7982L100.479 159.298L102.02 161.105L103.538 159.278L197.038 46.7784L198.036 45.5783L197.114 44.319L167.114 3.31898Z" fill="#FFCD00" stroke="#0F0F0F" stroke-width="4"/>
<path d="M55.5 44.5L37 4H103.5H165L148.5 45.5L103.5 4L55.5 44.5Z" fill="#FFF1BD" stroke="black" stroke-width="4"/>
<path d="M54.3556 46H6L36 5.5L54.3556 46Z" fill="#FFCD00"/>
<path d="M149.871 46L195.5 45.5L166 5L149.871 46Z" fill="#FFCD00"/>
<path d="M6 46H195.5" stroke="black" stroke-width="4"/>
<path d="M193.5 48H147L102 158L193.5 48Z" fill="#F89B24"/>
<path d="M8 48H54.5L102 158L8 48Z" fill="#F89B24"/>
<path d="M144 59.5L114 129.5" stroke="black" stroke-width="4" stroke-linecap="round"/>
<path d="M59.5 59.5L89.5 129.5" stroke="black" stroke-width="4" stroke-linecap="round"/>
</svg>
